<svg width="35" height="38" viewBox="0 0 35 38" fill="none" xmlns="http://www.w3.org/2000/svg">
<rect y="0.954102" width="34.3555" height="37.0195" rx="17.1777" fill="#8B68F7"/>
<path d="M17.1776 33.3352C10.0469 33.3352 4.24658 27.0687 4.24658 19.3649C4.24658 11.6611 10.0469 5.39453 17.1776 5.39453C24.3083 5.39453 30.1086 11.6611 30.1086 19.3649C30.1086 27.0687 24.3083 33.3352 17.1776 33.3352ZM17.1776 7.62979C11.188 7.62979 6.31555 12.8938 6.31555 19.3649C6.31555 25.8359 11.188 31.1 17.1776 31.1C23.1673 31.1 28.0397 25.8348 28.0397 19.3649C28.0397 12.8949 23.1673 7.62979 17.1776 7.62979Z" fill="#FFFDFD"/>
<path d="M17.1775 27.1888C16.9032 27.1888 16.6401 27.071 16.4461 26.8614C16.2521 26.6518 16.1431 26.3676 16.1431 26.0712V12.6596C16.1431 12.3632 16.2521 12.0789 16.4461 11.8693C16.6401 11.6597 16.9032 11.542 17.1775 11.542C17.4519 11.542 17.715 11.6597 17.909 11.8693C18.103 12.0789 18.212 12.3632 18.212 12.6596V26.0712C18.212 26.3676 18.103 26.6518 17.909 26.8614C17.715 27.071 17.4519 27.1888 17.1775 27.1888Z" fill="#FFFDFD"/>
<path d="M23.3848 20.4823H10.971C10.6966 20.4823 10.4335 20.3646 10.2395 20.155C10.0455 19.9454 9.93652 19.6611 9.93652 19.3647C9.93652 19.0683 10.0455 18.784 10.2395 18.5744C10.4335 18.3648 10.6966 18.2471 10.971 18.2471H23.3848C23.6592 18.2471 23.9223 18.3648 24.1163 18.5744C24.3103 18.784 24.4193 19.0683 24.4193 19.3647C24.4193 19.6611 24.3103 19.9454 24.1163 20.155C23.9223 20.3646 23.6592 20.4823 23.3848 20.4823Z" fill="#FFFDFD"/>
</svg>